# xmcd
#
# Track frame offsets: 
#        150
#        5343
#        23184
#        46680
#        73421
#        93594
#        113909
#        148374
#        172410
#        194755
#        223677
#        244718
#
# Disc length: 3638 seconds
#
# Revision: 0
# Processed by: cddbd v1.5.2PL0 Copyright (c) Steve Scherf et al.
# Submitted via: ExactAudioCopy v0.99pb5
#
DISCID=bb0e340c
DTITLE=Mojo Radio - Mojo Radio
DYEAR=2011
DGENRE=Blues
TTITLE0=Welcome
TTITLE1=High Horse
TTITLE2=Cost Of Your Loss
TTITLE3=Bone Shaker
TTITLE4=Healin'
TTITLE5=Throw Your Hat In The Ring
TTITLE6=Sour Grapes
TTITLE7=Wishing
TTITLE8=Exorcism
TTITLE9=Thin Line
TTITLE10=Dreaming
TTITLE11=Gilded Cage
EXTD=
EXTT0=
EXTT1=
EXTT2=
EXTT3=
EXTT4=
EXTT5=
EXTT6=
EXTT7=
EXTT8=
EXTT9=
EXTT10=
EXTT11=
PLAYORDER=
